<?xml version="1.0" encoding="UTF-8"?><svg id="Layer_1" xmlns="http://www.w3.org/2000/svg" viewBox="0 0 288 288"><defs><style>.cls-1{stroke-width:3px;}.cls-1,.cls-2,.cls-3,.cls-4{fill:none;stroke:#fff;stroke-miterlimit:10;}.cls-2{stroke-dasharray:0 0 9.7 9.7;}.cls-2,.cls-4{stroke-linecap:round;stroke-width:2px;}.cls-5{fill:#fff;}.cls-5,.cls-6,.cls-7{stroke-width:0px;}.cls-6{fill:#00001f;}.cls-3{stroke-dasharray:0 0 4.93 19.71;stroke-width:10px;}.cls-7{fill:#7ad28b;}</style></defs><circle class="cls-6" cx="144" cy="144" r="132"/><circle class="cls-1" cx="144" cy="144" r="89"/><line class="cls-1" x1="144" y1="23" x2="144" y2="265"/><line class="cls-4" x1="226.43" y1="61.57" x2="222.9" y2="65.1"/><line class="cls-2" x1="216.04" y1="71.96" x2="68.53" y2="219.47"/><line class="cls-4" x1="65.1" y1="222.9" x2="61.57" y2="226.43"/><polygon class="cls-5" points="229.95 43.95 225.16 62.84 244.05 58.05 229.95 43.95"/><polygon class="cls-5" points="43.95 229.95 62.84 225.16 58.05 244.05 43.95 229.95"/><line class="cls-1" x1="265" y1="144" x2="23" y2="144"/><line class="cls-4" x1="61.57" y1="61.57" x2="65.1" y2="65.1"/><line class="cls-2" x1="71.96" y1="71.96" x2="219.47" y2="219.47"/><line class="cls-4" x1="222.9" y1="222.9" x2="226.43" y2="226.43"/><polygon class="cls-5" points="43.95 58.05 62.84 62.84 58.05 43.95 43.95 58.05"/><polygon class="cls-5" points="229.95 244.05 225.16 225.16 244.05 229.95 229.95 244.05"/><path class="cls-7" d="M144,103c22.61,0,41,18.39,41,41s-18.39,41-41,41-41-18.39-41-41,18.39-41,41-41M144,98c-25.41,0-46,20.59-46,46s20.59,46,46,46,46-20.59,46-46-20.59-46-46-46h0Z"/><path class="cls-7" d="M144,80c35.35,0,64,28.65,64,64s-28.65,64-64,64-64-28.65-64-64,28.65-64,64-64M144,75c-38.05,0-69,30.95-69,69s30.95,69,69,69,69-30.95,69-69-30.95-69-69-69h0Z"/><circle class="cls-6" cx="144" cy="144" r="28"/><path class="cls-6" d="M121.39,203c-.22,0-.43-.07-.61-.2-.25-.19-.39-.48-.39-.8v-4.55c0-1.55.85-2.97,2.21-3.71l14.88-8.07c-1.84-10.89-2.95-23.14-2.95-25.73v-8.87l-50.26,14.03c-.09.02-.18.04-.27.04-.22,0-.43-.07-.6-.2-.25-.19-.4-.48-.4-.8v-6.76c0-1.21.66-2.34,1.71-2.94l32.34-18.35c-.02-.15-.02-.31-.02-.46v-5.51c0-2.4,1.95-4.36,4.35-4.36h1.92c2.39,0,4.33,1.93,4.35,4.31l6.87-3.9v-22.3c0-4.7,3.84-18.85,9.51-18.85s9.51,14.15,9.51,18.85v22.35l6.8,3.86c.02-2.38,1.97-4.31,4.36-4.31h1.92c2.4,0,4.36,1.95,4.36,4.35v5.51c0,.15,0,.31-.02.46l32.34,18.35c1.06.6,1.71,1.73,1.71,2.94v6.76c0,.31-.15.61-.4.8-.18.13-.39.2-.6.2-.09,0-.18-.01-.27-.04l-50.19-14.01v8.84c0,2.55-1.1,14.68-2.92,25.51l15.08,8.18c1.36.74,2.21,2.16,2.21,3.71v4.55c0,.31-.15.61-.39.8-.18.13-.39.2-.61.2-.09,0-.18-.01-.27-.04l-18.74-5.19c-1.19,3.73-2.37,5.33-3.88,5.33s-2.65-1.56-3.83-5.18l-18.55,5.14c-.09.02-.18.04-.27.04Z"/><path class="cls-5" d="M144.03,86c4.7,0,8.51,13.16,8.51,17.85v22.94l8.8,4.99v-1.68c0-1.85,1.5-3.36,3.36-3.36h1.92c1.85,0,3.36,1.5,3.36,3.36v5.51c0,.34-.05.67-.15.98l32.97,18.71c.74.42,1.2,1.21,1.2,2.07v6.76l-51.46-14.36v10.16c0,2.61-1.17,15.29-3.02,26.05l15.71,8.52c1.04.56,1.69,1.65,1.69,2.84v4.55l-19.68-5.45c-.99,3.38-2.07,5.56-3.21,5.56h0c-1.12,0-2.18-2.11-3.16-5.4l-19.49,5.4v-4.55c0-1.18.65-2.27,1.69-2.84l15.51-8.41c-1.87-10.81-3.06-23.64-3.06-26.26v-10.19l-51.53,14.38v-6.76c0-.86.46-1.65,1.2-2.07l32.97-18.71c-.09-.31-.15-.64-.15-.98v-5.51c0-1.85,1.5-3.36,3.36-3.36h1.92c1.85,0,3.36,1.5,3.36,3.36v1.68l8.87-5.03v-22.89c0-4.7,3.81-17.85,8.51-17.85h0M144.03,84c-6.67,0-10.51,15.07-10.51,19.85v21.72l-5.12,2.9c-.69-2.17-2.72-3.74-5.11-3.74h-1.92c-2.95,0-5.36,2.4-5.36,5.36v5.41l-31.81,18.05c-1.37.78-2.22,2.24-2.22,3.81v6.76c0,.63.29,1.21.79,1.59.35.27.78.41,1.21.41.18,0,.36-.02.54-.07l48.99-13.67v7.55c0,2.56,1.07,14.43,2.85,25.19l-14.25,7.73c-1.69.91-2.74,2.68-2.74,4.59v4.55c0,.62.29,1.21.79,1.59.35.27.78.41,1.21.41.18,0,.36-.02.53-.07l17.64-4.89c.98,2.75,2.28,4.96,4.48,4.96s3.54-2.28,4.53-5.12l17.82,4.94c.18.05.36.07.53.07.43,0,.86-.14,1.21-.41.5-.38.79-.97.79-1.59v-4.55c0-1.92-1.05-3.68-2.74-4.59l-14.46-7.84c1.76-10.7,2.81-22.45,2.81-24.97v-7.52l48.92,13.65c.18.05.36.07.54.07.43,0,.86-.14,1.21-.41.5-.38.79-.97.79-1.59v-6.76c0-1.57-.85-3.03-2.22-3.81l-31.81-18.05v-5.41c0-2.95-2.4-5.36-5.36-5.36h-1.92c-2.39,0-4.42,1.57-5.11,3.74l-5.05-2.86v-21.77c0-4.79-3.84-19.85-10.51-19.85h0Z"/><circle class="cls-3" cx="144" cy="144" r="125.5"/><circle class="cls-1" cx="144" cy="144" r="120.5"/><path class="cls-6" d="M144,13c34.99,0,67.89,13.63,92.63,38.37,24.74,24.74,38.37,57.64,38.37,92.63s-13.63,67.89-38.37,92.63c-24.74,24.74-57.64,38.37-92.63,38.37s-67.89-13.63-92.63-38.37c-24.74-24.74-38.37-57.64-38.37-92.63s13.63-67.89,38.37-92.63c24.74-24.74,57.64-38.37,92.63-38.37M144,0C64.47,0,0,64.47,0,144s64.47,144,144,144,144-64.47,144-144S223.53,0,144,0h0Z"/></svg>